<svg width="162" height="46" viewBox="0 0 162 46" fill="none" xmlns="http://www.w3.org/2000/svg">
<path d="M58.2926 23V2.71204H61.2941V23H58.2926Z" fill="#284256"/>
<path d="M75.7846 9.10412H78.7861V23H75.7846V20.999C74.6544 22.5738 73.0333 23.3612 70.9211 23.3612C69.0127 23.3612 67.3823 22.6572 66.0298 21.2491C64.6772 19.8224 64.001 18.0901 64.001 16.052C64.001 13.9955 64.6772 12.2631 66.0298 10.855C67.3823 9.44688 69.0127 8.74283 70.9211 8.74283C73.0333 8.74283 74.6544 9.521 75.7846 11.0773V9.10412ZM68.2531 19.2481C69.0868 20.0818 70.1337 20.4987 71.3936 20.4987C72.6534 20.4987 73.7003 20.0818 74.534 19.2481C75.3678 18.3958 75.7846 17.3305 75.7846 16.052C75.7846 14.7736 75.3678 13.7175 74.534 12.8838C73.7003 12.0315 72.6534 11.6054 71.3936 11.6054C70.1337 11.6054 69.0868 12.0315 68.2531 12.8838C67.4193 13.7175 67.0025 14.7736 67.0025 16.052C67.0025 17.3305 67.4193 18.3958 68.2531 19.2481Z" fill="#284256"/>
<path d="M89.5938 8.74283C91.1872 8.74283 92.4749 9.25234 93.4569 10.2714C94.4389 11.2904 94.9298 12.6892 94.9298 14.4679V23H91.9283V14.7736C91.9283 13.7361 91.6504 12.9394 91.0946 12.3835C90.5388 11.8277 89.7791 11.5498 88.8157 11.5498C87.7596 11.5498 86.9073 11.8833 86.2588 12.5503C85.6104 13.1988 85.2861 14.1993 85.2861 15.5518V23H82.2846V9.10412H85.2861V10.8828C86.194 9.45615 87.6299 8.74283 89.5938 8.74283Z" fill="#284256"/>
<path d="M109.167 3.54579H112.169V23H109.167V20.999C108.037 22.5738 106.416 23.3612 104.304 23.3612C102.395 23.3612 100.765 22.6572 99.4123 21.2491C98.0598 19.8224 97.3835 18.0901 97.3835 16.052C97.3835 13.9955 98.0598 12.2631 99.4123 10.855C100.765 9.44688 102.395 8.74283 104.304 8.74283C106.416 8.74283 108.037 9.521 109.167 11.0773V3.54579ZM101.636 19.2481C102.469 20.0818 103.516 20.4987 104.776 20.4987C106.036 20.4987 107.083 20.0818 107.917 19.2481C108.75 18.3958 109.167 17.3305 109.167 16.052C109.167 14.7736 108.75 13.7175 107.917 12.8838C107.083 12.0315 106.036 11.6054 104.776 11.6054C103.516 11.6054 102.469 12.0315 101.636 12.8838C100.802 13.7175 100.385 14.7736 100.385 16.052C100.385 17.3305 100.802 18.3958 101.636 19.2481Z" fill="#284256"/>
<path d="M115.667 23V2.71204H118.669V23H115.667Z" fill="#284256"/>
<path d="M128.713 23.3612C126.675 23.3612 124.942 22.6572 123.516 21.2491C122.089 19.841 121.376 18.1086 121.376 16.052C121.376 13.9955 122.089 12.2631 123.516 10.855C124.942 9.44688 126.675 8.74283 128.713 8.74283C130.769 8.74283 132.501 9.44688 133.91 10.855C135.336 12.2631 136.05 13.9955 136.05 16.052C136.05 18.1086 135.336 19.841 133.91 21.2491C132.501 22.6572 130.769 23.3612 128.713 23.3612ZM125.628 19.1925C126.461 20.0262 127.49 20.4431 128.713 20.4431C129.935 20.4431 130.964 20.0262 131.797 19.1925C132.631 18.3587 133.048 17.3119 133.048 16.052C133.048 14.7921 132.631 13.7453 131.797 12.9116C130.964 12.0778 129.935 11.661 128.713 11.661C127.49 11.661 126.461 12.0778 125.628 12.9116C124.794 13.7453 124.377 14.7921 124.377 16.052C124.377 17.3119 124.794 18.3587 125.628 19.1925Z" fill="#284256"/>
<path d="M141.765 11.4386C142.525 9.71554 143.951 8.854 146.045 8.854V12.1056C144.896 12.0315 143.896 12.3094 143.044 12.9394C142.191 13.5508 141.765 14.5698 141.765 15.9965V23H138.764V9.10412H141.765V11.4386Z" fill="#284256"/>
<path d="M158.617 3.54579H161.618V23H158.617V20.999C157.487 22.5738 155.865 23.3612 153.753 23.3612C151.845 23.3612 150.214 22.6572 148.862 21.2491C147.509 19.8224 146.833 18.0901 146.833 16.052C146.833 13.9955 147.509 12.2631 148.862 10.855C150.214 9.44688 151.845 8.74283 153.753 8.74283C155.865 8.74283 157.487 9.521 158.617 11.0773V3.54579ZM151.085 19.2481C151.919 20.0818 152.966 20.4987 154.226 20.4987C155.486 20.4987 156.532 20.0818 157.366 19.2481C158.2 18.3958 158.617 17.3305 158.617 16.052C158.617 14.7736 158.2 13.7175 157.366 12.8838C156.532 12.0315 155.486 11.6054 154.226 11.6054C152.966 11.6054 151.919 12.0315 151.085 12.8838C150.252 13.7175 149.835 14.7736 149.835 16.052C149.835 17.3305 150.252 18.3958 151.085 19.2481Z" fill="#284256"/>
<path d="M65.6018 29.8262C67.1952 29.8262 68.4829 30.3357 69.4649 31.3547C70.4468 32.3737 70.9378 33.7726 70.9378 35.5512V44.0833H67.9363V35.857C67.9363 34.8194 67.6584 34.0227 67.1026 33.4669C66.5467 32.911 65.7871 32.6331 64.8236 32.6331C63.7676 32.6331 62.9153 32.9666 62.2668 33.6336C61.6183 34.2821 61.2941 35.2826 61.2941 36.6351V44.0833H58.2926V24.6291H61.2941V31.9661C62.202 30.5395 63.6379 29.8262 65.6018 29.8262Z" fill="#284256"/>
<path d="M76.532 38.4138C76.7543 39.4699 77.2638 40.2851 78.0605 40.8595C78.8572 41.4153 79.8299 41.6932 80.9786 41.6932C82.572 41.6932 83.7671 41.1188 84.5638 39.9701L87.0372 41.4153C85.6662 43.4348 83.6374 44.4446 80.9508 44.4446C78.6905 44.4446 76.8655 43.7591 75.4759 42.388C74.0863 40.9984 73.3915 39.2475 73.3915 37.1354C73.3915 35.0603 74.077 33.3279 75.4481 31.9383C76.8192 30.5302 78.5793 29.8262 80.7285 29.8262C82.7666 29.8262 84.4341 30.5395 85.731 31.9661C87.0465 33.3928 87.7042 35.1251 87.7042 37.1632C87.7042 37.4781 87.6672 37.895 87.5931 38.4138H76.532ZM76.5042 35.9681H84.6749C84.4711 34.8379 83.9987 33.9856 83.2576 33.4113C82.535 32.8369 81.6827 32.5497 80.7007 32.5497C79.5891 32.5497 78.6627 32.8555 77.9216 33.4669C77.1804 34.0783 76.708 34.912 76.5042 35.9681Z" fill="#284256"/>
<path d="M101.269 30.1875H104.271V44.0833H101.269V42.0823C100.139 43.6572 98.518 44.4446 96.4058 44.4446C94.4975 44.4446 92.867 43.7405 91.5145 42.3324C90.162 40.9058 89.4857 39.1734 89.4857 37.1354C89.4857 35.0788 90.162 33.3464 91.5145 31.9383C92.867 30.5302 94.4975 29.8262 96.4058 29.8262C98.518 29.8262 100.139 30.6043 101.269 32.1607V30.1875ZM93.7378 40.3314C94.5716 41.1652 95.6184 41.582 96.8783 41.582C98.1382 41.582 99.185 41.1652 100.019 40.3314C100.853 39.4791 101.269 38.4138 101.269 37.1354C101.269 35.857 100.853 34.8009 100.019 33.9671C99.185 33.1148 98.1382 32.6887 96.8783 32.6887C95.6184 32.6887 94.5716 33.1148 93.7378 33.9671C92.9041 34.8009 92.4872 35.857 92.4872 37.1354C92.4872 38.4138 92.9041 39.4791 93.7378 40.3314Z" fill="#284256"/>
<path d="M117.191 30.1875H120.47L115.051 44.0833H111.577L106.157 30.1875H109.437L113.328 40.7483L117.191 30.1875Z" fill="#284256"/>
<path d="M124.19 38.4138C124.413 39.4699 124.922 40.2851 125.719 40.8595C126.516 41.4153 127.488 41.6932 128.637 41.6932C130.23 41.6932 131.425 41.1188 132.222 39.9701L134.696 41.4153C133.325 43.4348 131.296 44.4446 128.609 44.4446C126.349 44.4446 124.524 43.7591 123.134 42.388C121.745 40.9984 121.05 39.2475 121.05 37.1354C121.05 35.0603 121.735 33.3279 123.106 31.9383C124.478 30.5302 126.238 29.8262 128.387 29.8262C130.425 29.8262 132.092 30.5395 133.389 31.9661C134.705 33.3928 135.363 35.1251 135.363 37.1632C135.363 37.4781 135.326 37.895 135.251 38.4138H124.19ZM124.163 35.9681H132.333C132.129 34.8379 131.657 33.9856 130.916 33.4113C130.193 32.8369 129.341 32.5497 128.359 32.5497C127.247 32.5497 126.321 32.8555 125.58 33.4669C124.839 34.0783 124.366 34.912 124.163 35.9681Z" fill="#284256"/>
<path d="M145.313 29.8262C146.906 29.8262 148.194 30.3357 149.176 31.3547C150.158 32.3737 150.649 33.7726 150.649 35.5512V44.0833H147.647V35.857C147.647 34.8194 147.369 34.0227 146.814 33.4669C146.258 32.911 145.498 32.6331 144.535 32.6331C143.479 32.6331 142.626 32.9666 141.978 33.6336C141.329 34.2821 141.005 35.2826 141.005 36.6351V44.0833H138.004V30.1875H141.005V31.9661C141.913 30.5395 143.349 29.8262 145.313 29.8262Z" fill="#284256"/>
<g clip-path="url(#clip0_104_112)">
<path d="M22.9998 5.75L1.9165 21.85L4.23567 24.8975L7.6665 22.2717V40.25H38.3332V22.2717L41.764 24.8783L44.0832 21.85L22.9998 5.75ZM15.3332 28.75C14.279 28.75 13.4165 27.8875 13.4165 26.8333C13.4165 25.7792 14.279 24.9167 15.3332 24.9167C16.3873 24.9167 17.2498 25.7792 17.2498 26.8333C17.2498 27.8875 16.3873 28.75 15.3332 28.75ZM22.9998 28.75C21.9457 28.75 21.0832 27.8875 21.0832 26.8333C21.0832 25.7792 21.9457 24.9167 22.9998 24.9167C24.054 24.9167 24.9165 25.7792 24.9165 26.8333C24.9165 27.8875 24.054 28.75 22.9998 28.75ZM30.6665 28.75C29.6123 28.75 28.7498 27.8875 28.7498 26.8333C28.7498 25.7792 29.6123 24.9167 30.6665 24.9167C31.7207 24.9167 32.5832 25.7792 32.5832 26.8333C32.5832 27.8875 31.7207 28.75 30.6665 28.75Z" fill="#284256"/>
<path d="M44.0833 7.66671C44.0833 7.67207 44.0831 7.68819 44.0712 7.72234C44.0584 7.75909 44.0292 7.82454 43.9637 7.91786C43.8266 8.11324 43.5637 8.38332 43.1045 8.70001C42.1777 9.3391 40.7113 9.99141 38.7268 10.5702C34.7832 11.7204 29.2224 12.4584 23 12.4584C16.7776 12.4584 11.2168 11.7204 7.27321 10.5702C5.28873 9.99141 3.82231 9.3391 2.89553 8.70001C2.43628 8.38332 2.17338 8.11324 2.0363 7.91786C1.97083 7.82454 1.94162 7.75909 1.92883 7.72234C1.91694 7.68819 1.91667 7.67207 1.91667 7.66671C1.91667 7.66134 1.91694 7.64522 1.92883 7.61107C1.94162 7.57433 1.97083 7.50887 2.0363 7.41555C2.17338 7.22017 2.43628 6.95009 2.89553 6.6334C3.82231 5.99431 5.28873 5.34201 7.27321 4.7632C11.2168 3.613 16.7776 2.87504 23 2.87504C29.2224 2.87504 34.7832 3.613 38.7268 4.7632C40.7113 5.34201 42.1777 5.99431 43.1045 6.6334C43.5637 6.95009 43.8266 7.22017 43.9637 7.41555C44.0292 7.50887 44.0584 7.57433 44.0712 7.61107C44.0831 7.64522 44.0833 7.66134 44.0833 7.66671Z" stroke="#284256" stroke-width="3.83333"/>
<line x1="5.75" y1="44.0833" x2="40.25" y2="44.0833" stroke="#284256" stroke-width="3.83333"/>
</g>
<defs>
<clipPath id="clip0_104_112">
<rect width="46" height="46" fill="white"/>
</clipPath>
</defs>
</svg>
