<svg width="16" height="16" viewBox="0 0 16 16" fill="none" xmlns="http://www.w3.org/2000/svg">
<path d="M13 14.5H12.9C3.1 13.95 1.7 5.65 1.5 3.1C1.45 2.3 2.05 1.55 2.9 1.5H5.65C6.05 1.5 6.45 1.75 6.6 2.15L7.3 4C7.45 4.35 7.35 4.8 7.1 5.1L6.05 6.15C6.4 8.1 7.9 9.6 9.85 9.95L10.95 8.9C11.25 8.6 11.65 8.55 12.05 8.7L13.95 9.45C14.3 9.6 14.55 9.95 14.55 10.4V13C14.5 13.85 13.85 14.5 13 14.5V14.5ZM3 2.5C2.7 2.5 2.5 2.7 2.5 3V3.05C2.75 6 4.2 13 12.95 13.5C13.25 13.5 13.45 13.3 13.5 13.05V10.35L11.6 9.6L10.15 11.05L9.95 11C5.6 10.45 5 6.1 5 6.05L4.95 5.8L6.35 4.35L5.65 2.5H3Z" fill="#284256"/>
<path d="M10 2V3H12.3L9 6.3L9.7 7L13 3.7V6H14V2H10Z" fill="#284256"/>
</svg>
