<svg width="32" height="32" viewBox="0 0 32 32" fill="none" xmlns="http://www.w3.org/2000/svg">
<path d="M26 29H25.8C6.19999 27.9 3.39999 11.3 2.99999 6.2C2.89999 4.6 4.09999 3.1 5.79999 3H11.3C12.1 3 12.9 3.5 13.2 4.3L14.6 8C14.9 8.7 14.7 9.6 14.2 10.2L12.1 12.3C12.8 16.2 15.8 19.2 19.7 19.9L21.9 17.8C22.5 17.2 23.3 17.1 24.1 17.4L27.9 18.9C28.6 19.2 29.1 19.9 29.1 20.8V26C29 27.7 27.7 29 26 29V29ZM5.99999 5C5.39999 5 4.99999 5.4 4.99999 6V6.1C5.49999 12 8.39999 26 25.9 27C26.5 27 26.9 26.6 27 26.1V20.7L23.2 19.2L20.3 22.1L19.9 22C11.2 20.9 9.99999 12.2 9.99999 12.1L9.89999 11.6L12.7 8.7L11.3 5H5.99999Z" fill="#3D84AD"/>
<path d="M20 4V6H24.6L18 12.6L19.4 14L26 7.4V12H28V4H20Z" fill="#3D84AD"/>
</svg>
