<svg width="32" height="32" viewBox="0 0 32 32" fill="none" xmlns="http://www.w3.org/2000/svg">
<path d="M11.92 24.9403C13.6091 24.9509 15.2836 24.6261 16.8462 23.9846C18.4088 23.3431 19.8285 22.3977 21.0229 21.2032C22.2174 20.0088 23.1627 18.5891 23.8043 17.0265C24.4458 15.4639 24.7706 13.7895 24.76 12.1003V11.5103C25.6356 10.8688 26.3935 10.0805 27 9.18031C26.1755 9.54091 25.3031 9.78006 24.41 9.89031C25.3569 9.32609 26.0674 8.43798 26.41 7.39031C25.5275 7.91975 24.5598 8.29195 23.55 8.49031C22.8699 7.76568 21.97 7.28537 20.9895 7.1237C20.0089 6.96203 19.0024 7.12801 18.1257 7.59596C17.249 8.06392 16.551 8.80776 16.1396 9.71239C15.7282 10.617 15.6264 11.632 15.85 12.6003C14.056 12.5123 12.3007 12.0473 10.6984 11.2358C9.096 10.4243 7.68254 9.28439 6.55 7.89031C5.97892 8.88148 5.80583 10.0526 6.06576 11.1666C6.32569 12.2806 6.99923 13.2542 7.95 13.8903C7.24861 13.8633 6.56345 13.6714 5.95 13.3303V13.3803C5.94377 14.4161 6.29272 15.4228 6.9387 16.2326C7.58469 17.0423 8.48867 17.6062 9.5 17.8303C8.84764 18.0058 8.16429 18.0331 7.5 17.9103C7.79278 18.7937 8.35168 19.5649 9.10005 20.1181C9.84841 20.6713 10.7496 20.9795 11.68 21.0003C10.0892 22.2808 8.11209 22.9857 6.07 23.0003C5.71195 22.9899 5.35475 22.9599 5 22.9103C7.06696 24.2272 9.4692 24.9215 11.92 24.9103" fill="#284256"/>
</svg>
